{
    "asset" : {
        "generator" : "Khronos glTF Blender I/O v3.2.43",
        "version" : "2.0"
    },
    "scene" : 0,
    "scenes" : [
        {
            "name" : "Scene",
            "nodes" : [
                0,
                1,
                2
            ]
        }
    ],
    "nodes" : [
        {
            "mesh" : 0,
            "name" : "LENGUETA",
            "scale" : [
                0.7298544645309448,
                1,
                0.7105931639671326
            ],
            "translation" : [
                0.06101968511939049,
                0.9705985188484192,
                -1.8438000679016113
            ]
        },
        {
            "mesh" : 1,
            "name" : "AGUJETAS",
            "rotation" : [
                -0.47766852378845215,
                -0.2780905067920685,
                -0.1625160574913025,
                0.8173658847808838
            ],
            "scale" : [
                0.20032572746276855,
                1,
                1
            ],
            "translation" : [
                0.325501024723053,
                1.3418670892715454,
                -1.5014488697052002
            ]
        },
        {
            "mesh" : 2,
            "name" : "TENIS",
            "scale" : [
                0.7298544645309448,
                1,
                0.7105931639671326
            ],
            "translation" : [
                0.06101968511939049,
                0.9705985188484192,
                -1.8438000679016113
            ]
        }
    ],
    "meshes" : [
        {
            "name" : "Cube.006",
            "primitives" : [
                {
                    "attributes" : {
                        "POSITION" : 0,
                        "NORMAL" : 1,
                        "TEXCOORD_0" : 2
                    },
                    "indices" : 3
                }
            ]
        },
        {
            "name" : "NurbsPath.039",
            "primitives" : [
                {
                    "attributes" : {
                        "POSITION" : 4,
                        "NORMAL" : 5,
                        "TEXCOORD_0" : 6
                    },
                    "indices" : 7
                }
            ]
        },
        {
            "name" : "Cube.005",
            "primitives" : [
                {
                    "attributes" : {
                        "POSITION" : 8,
                        "NORMAL" : 9,
                        "TEXCOORD_0" : 10
                    },
                    "indices" : 11
                }
            ]
        }
    ],
    "accessors" : [
        {
            "bufferView" : 0,
            "componentType" : 5126,
            "count" : 9602,
            "max" : [
                0.7476567029953003,
                1.1147997379302979,
                2.4888463020324707
            ],
            "min" : [
                -0.757218599319458,
                -0.36008644104003906,
                -0.23900091648101807
            ],
            "type" : "VEC3"
        },
        {
            "bufferView" : 1,
            "componentType" : 5126,
            "count" : 9602,
            "type" : "VEC3"
        },
        {
            "bufferView" : 2,
            "componentType" : 5126,
            "count" : 9602,
            "type" : "VEC2"
        },
        {
            "bufferView" : 3,
            "componentType" : 5123,
            "count" : 57600,
            "type" : "SCALAR"
        },
        {
            "bufferView" : 4,
            "componentType" : 5126,
            "count" : 3648,
            "max" : [
                4.371278762817383,
                0.28947752714157104,
                0.5797356963157654
            ],
            "min" : [
                -2.9165217876434326,
                -1.6142209768295288,
                -0.148366779088974
            ],
            "type" : "VEC3"
        },
        {
            "bufferView" : 5,
            "componentType" : 5126,
            "count" : 3648,
            "type" : "VEC3"
        },
        {
            "bufferView" : 6,
            "componentType" : 5126,
            "count" : 3648,
            "type" : "VEC2"
        },
        {
            "bufferView" : 7,
            "componentType" : 5123,
            "count" : 10830,
            "type" : "SCALAR"
        },
        {
            "bufferView" : 8,
            "componentType" : 5126,
            "count" : 20242,
            "max" : [
                0.9209194183349609,
                1.0511095523834229,
                3.4519362449645996
            ],
            "min" : [
                -0.9209194183349609,
                -1.0000001192092896,
                -1.0510210990905762
            ],
            "type" : "VEC3"
        },
        {
            "bufferView" : 9,
            "componentType" : 5126,
            "count" : 20242,
            "type" : "VEC3"
        },
        {
            "bufferView" : 10,
            "componentType" : 5126,
            "count" : 20242,
            "type" : "VEC2"
        },
        {
            "bufferView" : 11,
            "componentType" : 5123,
            "count" : 118656,
            "type" : "SCALAR"
        }
    ],
    "bufferViews" : [
        {
            "buffer" : 0,
            "byteLength" : 115224,
            "byteOffset" : 0
        },
        {
            "buffer" : 0,
            "byteLength" : 115224,
            "byteOffset" : 115224
        },
        {
            "buffer" : 0,
            "byteLength" : 76816,
            "byteOffset" : 230448
        },
        {
            "buffer" : 0,
            "byteLength" : 115200,
            "byteOffset" : 307264
        },
        {
            "buffer" : 0,
            "byteLength" : 43776,
            "byteOffset" : 422464
        },
        {
            "buffer" : 0,
            "byteLength" : 43776,
            "byteOffset" : 466240
        },
        {
            "buffer" : 0,
            "byteLength" : 29184,
            "byteOffset" : 510016
        },
        {
            "buffer" : 0,
            "byteLength" : 21660,
            "byteOffset" : 539200
        },
        {
            "buffer" : 0,
            "byteLength" : 242904,
            "byteOffset" : 560860
        },
        {
            "buffer" : 0,
            "byteLength" : 242904,
            "byteOffset" : 803764
        },
        {
            "buffer" : 0,
            "byteLength" : 161936,
            "byteOffset" : 1046668
        },
        {
            "buffer" : 0,
            "byteLength" : 237312,
            "byteOffset" : 1208604
        }
    ],
    "buffers" : [
        {
            "byteLength" : 1445916,
            "uri" : "nike.bin"
        }
    ]
}
